G75*
G70*
%OFA0B0*%
%FSLAX24Y24*%
%IPPOS*%
%LPD*%
%AMOC8*
5,1,8,0,0,1.08239X$1,22.5*
%
%ADD10C,0.0000*%
%ADD11C,0.0827*%
%ADD12C,0.0745*%
%ADD13OC8,0.0890*%
%ADD14C,0.0640*%
%ADD15R,0.2402X0.1300*%
%ADD16C,0.1700*%
D10*
X000180Y000180D02*
X000180Y018176D01*
X018550Y018176D01*
X018550Y000180D01*
X000180Y000180D01*
X002264Y007180D02*
X002266Y007219D01*
X002272Y007258D01*
X002282Y007296D01*
X002295Y007333D01*
X002312Y007368D01*
X002332Y007402D01*
X002356Y007433D01*
X002383Y007462D01*
X002412Y007488D01*
X002444Y007511D01*
X002478Y007531D01*
X002514Y007547D01*
X002551Y007559D01*
X002590Y007568D01*
X002629Y007573D01*
X002668Y007574D01*
X002707Y007571D01*
X002746Y007564D01*
X002783Y007553D01*
X002820Y007539D01*
X002855Y007521D01*
X002888Y007500D01*
X002919Y007475D01*
X002947Y007448D01*
X002972Y007418D01*
X002994Y007385D01*
X003013Y007351D01*
X003028Y007315D01*
X003040Y007277D01*
X003048Y007239D01*
X003052Y007200D01*
X003052Y007160D01*
X003048Y007121D01*
X003040Y007083D01*
X003028Y007045D01*
X003013Y007009D01*
X002994Y006975D01*
X002972Y006942D01*
X002947Y006912D01*
X002919Y006885D01*
X002888Y006860D01*
X002855Y006839D01*
X002820Y006821D01*
X002783Y006807D01*
X002746Y006796D01*
X002707Y006789D01*
X002668Y006786D01*
X002629Y006787D01*
X002590Y006792D01*
X002551Y006801D01*
X002514Y006813D01*
X002478Y006829D01*
X002444Y006849D01*
X002412Y006872D01*
X002383Y006898D01*
X002356Y006927D01*
X002332Y006958D01*
X002312Y006992D01*
X002295Y007027D01*
X002282Y007064D01*
X002272Y007102D01*
X002266Y007141D01*
X002264Y007180D01*
X005020Y007180D02*
X005022Y007219D01*
X005028Y007258D01*
X005038Y007296D01*
X005051Y007333D01*
X005068Y007368D01*
X005088Y007402D01*
X005112Y007433D01*
X005139Y007462D01*
X005168Y007488D01*
X005200Y007511D01*
X005234Y007531D01*
X005270Y007547D01*
X005307Y007559D01*
X005346Y007568D01*
X005385Y007573D01*
X005424Y007574D01*
X005463Y007571D01*
X005502Y007564D01*
X005539Y007553D01*
X005576Y007539D01*
X005611Y007521D01*
X005644Y007500D01*
X005675Y007475D01*
X005703Y007448D01*
X005728Y007418D01*
X005750Y007385D01*
X005769Y007351D01*
X005784Y007315D01*
X005796Y007277D01*
X005804Y007239D01*
X005808Y007200D01*
X005808Y007160D01*
X005804Y007121D01*
X005796Y007083D01*
X005784Y007045D01*
X005769Y007009D01*
X005750Y006975D01*
X005728Y006942D01*
X005703Y006912D01*
X005675Y006885D01*
X005644Y006860D01*
X005611Y006839D01*
X005576Y006821D01*
X005539Y006807D01*
X005502Y006796D01*
X005463Y006789D01*
X005424Y006786D01*
X005385Y006787D01*
X005346Y006792D01*
X005307Y006801D01*
X005270Y006813D01*
X005234Y006829D01*
X005200Y006849D01*
X005168Y006872D01*
X005139Y006898D01*
X005112Y006927D01*
X005088Y006958D01*
X005068Y006992D01*
X005051Y007027D01*
X005038Y007064D01*
X005028Y007102D01*
X005022Y007141D01*
X005020Y007180D01*
D11*
X005414Y007180D03*
X002658Y007180D03*
D12*
X015196Y004283D02*
X015196Y003578D01*
X017164Y003578D02*
X017164Y004283D01*
D13*
X008430Y010430D03*
X008430Y011680D03*
X002930Y011680D03*
X002930Y010430D03*
X002805Y016430D03*
X002805Y017430D03*
X017930Y014930D03*
D14*
X013680Y001980D02*
X013680Y001380D01*
X012680Y001380D02*
X012680Y001980D01*
X011680Y001980D02*
X011680Y001380D01*
X010680Y001380D02*
X010680Y001980D01*
X009680Y001980D02*
X009680Y001380D01*
X008680Y001380D02*
X008680Y001980D01*
X007680Y001980D02*
X007680Y001380D01*
X006680Y001380D02*
X006680Y001980D01*
X005680Y001980D02*
X005680Y001380D01*
D15*
X013208Y008680D03*
X017145Y008676D03*
D16*
X017700Y001030D03*
X001030Y001030D03*
X001020Y017340D03*
X017710Y017340D03*
M02*
