G75*
G70*
%OFA0B0*%
%FSLAX24Y24*%
%IPPOS*%
%LPD*%
%AMOC8*
5,1,8,0,0,1.08239X$1,22.5*
%
%ADD10C,0.0000*%
%ADD11C,0.0080*%
%ADD12C,0.0705*%
%ADD13OC8,0.0850*%
%ADD14C,0.0600*%
%ADD15R,0.2362X0.1260*%
%ADD16C,0.0160*%
%ADD17C,0.0317*%
%ADD18R,0.0356X0.0356*%
%ADD19C,0.0356*%
%ADD20C,0.1660*%
D10*
X000180Y000180D02*
X000180Y018176D01*
X018550Y018176D01*
X018550Y000180D01*
X000180Y000180D01*
X002264Y007180D02*
X002266Y007219D01*
X002272Y007258D01*
X002282Y007296D01*
X002295Y007333D01*
X002312Y007368D01*
X002332Y007402D01*
X002356Y007433D01*
X002383Y007462D01*
X002412Y007488D01*
X002444Y007511D01*
X002478Y007531D01*
X002514Y007547D01*
X002551Y007559D01*
X002590Y007568D01*
X002629Y007573D01*
X002668Y007574D01*
X002707Y007571D01*
X002746Y007564D01*
X002783Y007553D01*
X002820Y007539D01*
X002855Y007521D01*
X002888Y007500D01*
X002919Y007475D01*
X002947Y007448D01*
X002972Y007418D01*
X002994Y007385D01*
X003013Y007351D01*
X003028Y007315D01*
X003040Y007277D01*
X003048Y007239D01*
X003052Y007200D01*
X003052Y007160D01*
X003048Y007121D01*
X003040Y007083D01*
X003028Y007045D01*
X003013Y007009D01*
X002994Y006975D01*
X002972Y006942D01*
X002947Y006912D01*
X002919Y006885D01*
X002888Y006860D01*
X002855Y006839D01*
X002820Y006821D01*
X002783Y006807D01*
X002746Y006796D01*
X002707Y006789D01*
X002668Y006786D01*
X002629Y006787D01*
X002590Y006792D01*
X002551Y006801D01*
X002514Y006813D01*
X002478Y006829D01*
X002444Y006849D01*
X002412Y006872D01*
X002383Y006898D01*
X002356Y006927D01*
X002332Y006958D01*
X002312Y006992D01*
X002295Y007027D01*
X002282Y007064D01*
X002272Y007102D01*
X002266Y007141D01*
X002264Y007180D01*
X005020Y007180D02*
X005022Y007219D01*
X005028Y007258D01*
X005038Y007296D01*
X005051Y007333D01*
X005068Y007368D01*
X005088Y007402D01*
X005112Y007433D01*
X005139Y007462D01*
X005168Y007488D01*
X005200Y007511D01*
X005234Y007531D01*
X005270Y007547D01*
X005307Y007559D01*
X005346Y007568D01*
X005385Y007573D01*
X005424Y007574D01*
X005463Y007571D01*
X005502Y007564D01*
X005539Y007553D01*
X005576Y007539D01*
X005611Y007521D01*
X005644Y007500D01*
X005675Y007475D01*
X005703Y007448D01*
X005728Y007418D01*
X005750Y007385D01*
X005769Y007351D01*
X005784Y007315D01*
X005796Y007277D01*
X005804Y007239D01*
X005808Y007200D01*
X005808Y007160D01*
X005804Y007121D01*
X005796Y007083D01*
X005784Y007045D01*
X005769Y007009D01*
X005750Y006975D01*
X005728Y006942D01*
X005703Y006912D01*
X005675Y006885D01*
X005644Y006860D01*
X005611Y006839D01*
X005576Y006821D01*
X005539Y006807D01*
X005502Y006796D01*
X005463Y006789D01*
X005424Y006786D01*
X005385Y006787D01*
X005346Y006792D01*
X005307Y006801D01*
X005270Y006813D01*
X005234Y006829D01*
X005200Y006849D01*
X005168Y006872D01*
X005139Y006898D01*
X005112Y006927D01*
X005088Y006958D01*
X005068Y006992D01*
X005051Y007027D01*
X005038Y007064D01*
X005028Y007102D01*
X005022Y007141D01*
X005020Y007180D01*
D11*
X006065Y007925D02*
X006795Y008655D01*
X006805Y009680D01*
X004555Y011930D01*
X004560Y012145D01*
X004305Y011805D02*
X006430Y009685D01*
X006430Y008755D01*
X005420Y009245D02*
X004930Y008755D01*
X005420Y009245D02*
X005430Y010180D01*
X003930Y011680D01*
X003930Y011930D01*
X005680Y013680D01*
X005680Y015305D01*
X005555Y015430D01*
X005305Y013930D02*
X005305Y013680D01*
X003680Y012055D01*
X003680Y011305D01*
X003430Y011055D01*
X002555Y011055D01*
X002305Y010805D01*
X002305Y009805D01*
X002680Y009430D01*
X003235Y009525D02*
X003275Y009525D01*
X003805Y010055D01*
X004100Y010455D02*
X004100Y005780D01*
X002490Y005020D02*
X001900Y004430D01*
X004470Y003015D02*
X004470Y001910D01*
X005270Y002330D02*
X005680Y001920D01*
X005680Y001680D01*
X005270Y002330D02*
X005270Y003015D01*
X007680Y003045D02*
X007680Y001680D01*
X010000Y003015D02*
X010680Y002335D01*
X010680Y001680D01*
X014305Y006180D02*
X015055Y006930D01*
X015805Y006930D01*
X015805Y007805D02*
X015180Y008430D01*
X015180Y009805D01*
X015055Y009930D01*
X011805Y009930D01*
X011180Y010555D01*
X011145Y010590D01*
X011010Y010590D01*
X009085Y012515D01*
X005595Y012515D01*
X005930Y011430D02*
X008180Y009180D01*
X008180Y008805D01*
X008595Y009145D02*
X007270Y010470D01*
X007270Y012135D01*
X005055Y010055D02*
X004305Y010805D01*
X003930Y010660D02*
X003930Y011180D01*
X003930Y010660D02*
X004100Y010455D01*
X005055Y010055D02*
X005055Y009720D01*
X002930Y011680D02*
X004340Y013090D01*
X004340Y013900D01*
X011180Y016930D02*
X013680Y016930D01*
X014430Y016430D02*
X011930Y016430D01*
X017447Y010430D02*
X018061Y010430D01*
X017020Y008800D02*
X017140Y008680D01*
X017145Y008676D01*
X017020Y008800D02*
X015760Y008800D01*
D12*
X015196Y004283D02*
X015196Y003578D01*
X017164Y003578D02*
X017164Y004283D01*
D13*
X008430Y010430D03*
X008430Y011680D03*
X002930Y011680D03*
X002930Y010430D03*
X002805Y016430D03*
X002805Y017430D03*
X017930Y014930D03*
D14*
X013680Y001980D02*
X013680Y001380D01*
X012680Y001380D02*
X012680Y001980D01*
X011680Y001980D02*
X011680Y001380D01*
X010680Y001380D02*
X010680Y001980D01*
X009680Y001980D02*
X009680Y001380D01*
X008680Y001380D02*
X008680Y001980D01*
X007680Y001980D02*
X007680Y001380D01*
X006680Y001380D02*
X006680Y001980D01*
X005680Y001980D02*
X005680Y001380D01*
D15*
X013208Y008680D03*
X017145Y008676D03*
D16*
X016086Y007906D02*
X016103Y007864D01*
X016103Y007746D01*
X016058Y007636D01*
X015974Y007552D01*
X015864Y007507D01*
X015746Y007507D01*
X015636Y007552D01*
X015552Y007636D01*
X015507Y007746D01*
X015507Y007849D01*
X015000Y008355D01*
X015000Y009730D01*
X014980Y009750D01*
X011730Y009750D01*
X011625Y009855D01*
X011224Y010257D01*
X011121Y010257D01*
X011011Y010302D01*
X010927Y010386D01*
X010904Y010441D01*
X010830Y010515D01*
X009010Y012335D01*
X007492Y012335D01*
X007523Y012304D01*
X007568Y012194D01*
X007568Y012076D01*
X007523Y011966D01*
X007450Y011893D01*
X007450Y010545D01*
X008551Y009443D01*
X008654Y009443D01*
X008764Y009398D01*
X008848Y009314D01*
X008893Y009204D01*
X008893Y009086D01*
X008848Y008976D01*
X008764Y008892D01*
X008654Y008847D01*
X008536Y008847D01*
X008476Y008871D01*
X008478Y008864D01*
X008478Y008746D01*
X008433Y008636D01*
X008349Y008552D01*
X008239Y008507D01*
X008121Y008507D01*
X008011Y008552D01*
X007927Y008636D01*
X007882Y008746D01*
X007882Y008864D01*
X007927Y008974D01*
X008000Y009047D01*
X008000Y009105D01*
X005974Y011132D01*
X005871Y011132D01*
X005761Y011177D01*
X005677Y011261D01*
X005632Y011371D01*
X005632Y011489D01*
X005677Y011599D01*
X005761Y011683D01*
X005871Y011728D01*
X005989Y011728D01*
X006099Y011683D01*
X006183Y011599D01*
X006228Y011489D01*
X006228Y011386D01*
X007090Y010525D01*
X007090Y011893D01*
X007017Y011966D01*
X006972Y012076D01*
X006972Y012194D01*
X007017Y012304D01*
X007048Y012335D01*
X005837Y012335D01*
X005764Y012262D01*
X005654Y012217D01*
X005536Y012217D01*
X005426Y012262D01*
X005342Y012346D01*
X005297Y012456D01*
X005297Y012574D01*
X005342Y012684D01*
X005426Y012768D01*
X005536Y012813D01*
X005654Y012813D01*
X005764Y012768D01*
X005837Y012695D01*
X009160Y012695D01*
X011036Y010818D01*
X011121Y010853D01*
X011239Y010853D01*
X011349Y010808D01*
X011433Y010724D01*
X011478Y010614D01*
X011478Y010511D01*
X011880Y010110D01*
X015130Y010110D01*
X015235Y010005D01*
X015255Y009985D01*
X015360Y009880D01*
X015360Y008505D01*
X015761Y008103D01*
X015823Y008103D01*
X015823Y008503D01*
X015819Y008502D01*
X015701Y008502D01*
X015591Y008547D01*
X015507Y008631D01*
X015462Y008741D01*
X015462Y008859D01*
X015507Y008969D01*
X015591Y009053D01*
X015701Y009098D01*
X015819Y009098D01*
X015823Y009097D01*
X015823Y009364D01*
X015905Y009446D01*
X018370Y009446D01*
X018370Y014571D01*
X018164Y014365D01*
X017696Y014365D01*
X017365Y014696D01*
X017365Y015164D01*
X017696Y015495D01*
X018164Y015495D01*
X018370Y015289D01*
X018370Y016628D01*
X018259Y016518D01*
X017903Y016370D01*
X017517Y016370D01*
X017161Y016518D01*
X016888Y016791D01*
X016740Y017147D01*
X016740Y017533D01*
X016888Y017889D01*
X016994Y017996D01*
X001736Y017996D01*
X001842Y017889D01*
X001990Y017533D01*
X001990Y017147D01*
X001842Y016791D01*
X001569Y016518D01*
X001213Y016370D01*
X000827Y016370D01*
X000471Y016518D01*
X000360Y016628D01*
X000360Y001732D01*
X000481Y001852D01*
X000837Y002000D01*
X001223Y002000D01*
X001579Y001852D01*
X001852Y001579D01*
X002000Y001223D01*
X002000Y000837D01*
X001852Y000481D01*
X001732Y000360D01*
X016998Y000360D01*
X016878Y000481D01*
X016730Y000837D01*
X016730Y001223D01*
X016878Y001579D01*
X017151Y001852D01*
X017507Y002000D01*
X017893Y002000D01*
X018249Y001852D01*
X018370Y001732D01*
X018370Y007906D01*
X016086Y007906D01*
X016103Y007788D02*
X018370Y007788D01*
X018370Y007630D02*
X016052Y007630D01*
X015864Y007228D02*
X015746Y007228D01*
X015636Y007183D01*
X015563Y007110D01*
X014980Y007110D01*
X014349Y006478D01*
X014246Y006478D01*
X014136Y006433D01*
X014052Y006349D01*
X014007Y006239D01*
X014007Y006121D01*
X014052Y006011D01*
X014136Y005927D01*
X014246Y005882D01*
X014364Y005882D01*
X014474Y005927D01*
X014558Y006011D01*
X014603Y006121D01*
X014603Y006224D01*
X015130Y006750D01*
X015563Y006750D01*
X015636Y006677D01*
X015746Y006632D01*
X015864Y006632D01*
X015974Y006677D01*
X016058Y006761D01*
X016103Y006871D01*
X016103Y006989D01*
X016058Y007099D01*
X015974Y007183D01*
X015864Y007228D01*
X016003Y007154D02*
X018370Y007154D01*
X018370Y006996D02*
X016101Y006996D01*
X016090Y006837D02*
X018370Y006837D01*
X018370Y006679D02*
X015976Y006679D01*
X015634Y006679D02*
X015058Y006679D01*
X014900Y006520D02*
X018370Y006520D01*
X018370Y006362D02*
X014741Y006362D01*
X014603Y006203D02*
X018370Y006203D01*
X018370Y006045D02*
X014572Y006045D01*
X014375Y005886D02*
X018370Y005886D01*
X018370Y005728D02*
X004398Y005728D01*
X004398Y005721D02*
X004398Y005839D01*
X004353Y005949D01*
X004280Y006022D01*
X004280Y010447D01*
X004286Y010507D01*
X004349Y010507D01*
X004875Y009980D01*
X004875Y009962D01*
X004802Y009889D01*
X004757Y009779D01*
X004757Y009661D01*
X004802Y009551D01*
X004886Y009467D01*
X004996Y009422D01*
X005114Y009422D01*
X005224Y009467D01*
X005243Y009485D01*
X005241Y009320D01*
X004974Y009053D01*
X004871Y009053D01*
X004761Y009008D01*
X004677Y008924D01*
X004632Y008814D01*
X004632Y008696D01*
X004677Y008586D01*
X004761Y008502D01*
X004871Y008457D01*
X004989Y008457D01*
X005099Y008502D01*
X005183Y008586D01*
X005228Y008696D01*
X005228Y008799D01*
X005547Y009117D01*
X005599Y009169D01*
X005599Y009170D01*
X005600Y009170D01*
X005600Y009244D01*
X005609Y010105D01*
X005610Y010105D01*
X005610Y010179D01*
X005611Y010248D01*
X006250Y009610D01*
X006250Y008997D01*
X006177Y008924D01*
X006132Y008814D01*
X006132Y008696D01*
X006177Y008586D01*
X006261Y008502D01*
X006350Y008465D01*
X006109Y008223D01*
X006006Y008223D01*
X005896Y008178D01*
X005812Y008094D01*
X005767Y007984D01*
X005767Y007866D01*
X005812Y007756D01*
X005896Y007672D01*
X006006Y007627D01*
X006124Y007627D01*
X006234Y007672D01*
X006318Y007756D01*
X006363Y007866D01*
X006363Y007969D01*
X006922Y008527D01*
X006974Y008579D01*
X006974Y008580D01*
X006975Y008580D01*
X006975Y008654D01*
X006984Y009605D01*
X006985Y009605D01*
X006985Y009679D01*
X006986Y009753D01*
X006985Y009754D01*
X006985Y009755D01*
X006933Y009807D01*
X006881Y009859D01*
X006880Y009859D01*
X004788Y011951D01*
X004813Y011976D01*
X004858Y012086D01*
X004858Y012204D01*
X004813Y012314D01*
X004729Y012398D01*
X004675Y012420D01*
X005860Y013605D01*
X005860Y015380D01*
X005853Y015386D01*
X005853Y015489D01*
X005808Y015599D01*
X005724Y015683D01*
X005614Y015728D01*
X005496Y015728D01*
X005386Y015683D01*
X005302Y015599D01*
X005257Y015489D01*
X005257Y015371D01*
X005302Y015261D01*
X005386Y015177D01*
X005496Y015132D01*
X005500Y015132D01*
X005500Y014157D01*
X005474Y014183D01*
X005364Y014228D01*
X005246Y014228D01*
X005136Y014183D01*
X005052Y014099D01*
X005007Y013989D01*
X005007Y013871D01*
X005052Y013761D01*
X005092Y013721D01*
X004520Y013150D01*
X004520Y013658D01*
X004593Y013731D01*
X004638Y013841D01*
X004638Y013959D01*
X004593Y014069D01*
X004509Y014153D01*
X004399Y014198D01*
X004281Y014198D01*
X004171Y014153D01*
X004087Y014069D01*
X004042Y013959D01*
X004042Y013841D01*
X004087Y013731D01*
X004160Y013658D01*
X004160Y013165D01*
X003202Y012207D01*
X003164Y012245D01*
X002696Y012245D01*
X002365Y011914D01*
X002365Y011446D01*
X002576Y011235D01*
X002480Y011235D01*
X002230Y010985D01*
X002125Y010880D01*
X002125Y009730D01*
X002382Y009474D01*
X002382Y009371D01*
X002427Y009261D01*
X002511Y009177D01*
X002621Y009132D01*
X002739Y009132D01*
X002849Y009177D01*
X002933Y009261D01*
X002977Y009368D01*
X002982Y009356D01*
X003066Y009272D01*
X003176Y009227D01*
X003294Y009227D01*
X003404Y009272D01*
X003488Y009356D01*
X003533Y009466D01*
X003533Y009529D01*
X003761Y009757D01*
X003864Y009757D01*
X003920Y009780D01*
X003920Y006022D01*
X003847Y005949D01*
X003802Y005839D01*
X003802Y005721D01*
X003847Y005611D01*
X003931Y005527D01*
X004041Y005482D01*
X004159Y005482D01*
X004269Y005527D01*
X004353Y005611D01*
X004398Y005721D01*
X004379Y005886D02*
X014235Y005886D01*
X014038Y006045D02*
X004280Y006045D01*
X004280Y006203D02*
X014007Y006203D01*
X014064Y006362D02*
X004280Y006362D01*
X004280Y006520D02*
X014390Y006520D01*
X014549Y006679D02*
X005702Y006679D01*
X005739Y006694D02*
X005900Y006855D01*
X005988Y007066D01*
X005988Y007294D01*
X005900Y007505D01*
X005739Y007666D01*
X005528Y007754D01*
X005300Y007754D01*
X005089Y007666D01*
X004927Y007505D01*
X004840Y007294D01*
X004840Y007066D01*
X004927Y006855D01*
X005089Y006694D01*
X005300Y006606D01*
X005528Y006606D01*
X005739Y006694D01*
X005882Y006837D02*
X014707Y006837D01*
X014866Y006996D02*
X005958Y006996D01*
X005988Y007154D02*
X015607Y007154D01*
X015558Y007630D02*
X006132Y007630D01*
X005998Y007630D02*
X005776Y007630D01*
X005799Y007788D02*
X004280Y007788D01*
X004280Y007630D02*
X005052Y007630D01*
X004913Y007471D02*
X004280Y007471D01*
X004280Y007313D02*
X004848Y007313D01*
X004840Y007154D02*
X004280Y007154D01*
X004280Y006996D02*
X004869Y006996D01*
X004946Y006837D02*
X004280Y006837D01*
X004280Y006679D02*
X005125Y006679D01*
X005980Y007313D02*
X018370Y007313D01*
X018370Y007471D02*
X005914Y007471D01*
X006331Y007788D02*
X015507Y007788D01*
X015409Y007947D02*
X014537Y007947D01*
X014533Y007940D02*
X014556Y007981D01*
X014569Y008026D01*
X014569Y008600D01*
X013288Y008600D01*
X013288Y008760D01*
X014569Y008760D01*
X014569Y009334D01*
X014556Y009379D01*
X014533Y009420D01*
X014499Y009454D01*
X014458Y009478D01*
X014412Y009490D01*
X013288Y009490D01*
X013288Y008760D01*
X013128Y008760D01*
X013128Y009490D01*
X012003Y009490D01*
X011957Y009478D01*
X011916Y009454D01*
X011882Y009420D01*
X011859Y009379D01*
X011846Y009334D01*
X011846Y008760D01*
X013128Y008760D01*
X013128Y008600D01*
X013288Y008600D01*
X013288Y007870D01*
X014412Y007870D01*
X014458Y007882D01*
X014499Y007906D01*
X014533Y007940D01*
X014569Y008105D02*
X015250Y008105D01*
X015092Y008264D02*
X014569Y008264D01*
X014569Y008422D02*
X015000Y008422D01*
X015000Y008581D02*
X014569Y008581D01*
X014569Y008898D02*
X015000Y008898D01*
X015000Y009056D02*
X014569Y009056D01*
X014569Y009215D02*
X015000Y009215D01*
X015000Y009373D02*
X014558Y009373D01*
X015000Y009532D02*
X008463Y009532D01*
X008305Y009690D02*
X015000Y009690D01*
X015360Y009690D02*
X018370Y009690D01*
X018370Y009532D02*
X015360Y009532D01*
X015360Y009373D02*
X015833Y009373D01*
X015823Y009215D02*
X015360Y009215D01*
X015360Y009056D02*
X015598Y009056D01*
X015477Y008898D02*
X015360Y008898D01*
X015360Y008739D02*
X015462Y008739D01*
X015557Y008581D02*
X015360Y008581D01*
X015443Y008422D02*
X015823Y008422D01*
X015823Y008264D02*
X015601Y008264D01*
X015760Y008105D02*
X015823Y008105D01*
X015000Y008739D02*
X013288Y008739D01*
X013288Y008581D02*
X013128Y008581D01*
X013128Y008600D02*
X013128Y007870D01*
X012003Y007870D01*
X011957Y007882D01*
X011916Y007906D01*
X011882Y007940D01*
X011859Y007981D01*
X011846Y008026D01*
X011846Y008600D01*
X013128Y008600D01*
X013128Y008739D02*
X008476Y008739D01*
X008378Y008581D02*
X011846Y008581D01*
X011846Y008422D02*
X006817Y008422D01*
X006975Y008581D02*
X007982Y008581D01*
X007884Y008739D02*
X006976Y008739D01*
X006977Y008898D02*
X007895Y008898D01*
X008000Y009056D02*
X006979Y009056D01*
X006980Y009215D02*
X007891Y009215D01*
X007732Y009373D02*
X006982Y009373D01*
X006984Y009532D02*
X007574Y009532D01*
X007415Y009690D02*
X006985Y009690D01*
X006892Y009849D02*
X007257Y009849D01*
X007098Y010007D02*
X006733Y010007D01*
X006574Y010166D02*
X006940Y010166D01*
X006781Y010324D02*
X006416Y010324D01*
X006257Y010483D02*
X006623Y010483D01*
X006464Y010641D02*
X006099Y010641D01*
X005940Y010800D02*
X006306Y010800D01*
X006147Y010958D02*
X005782Y010958D01*
X005623Y011117D02*
X005989Y011117D01*
X005671Y011275D02*
X005465Y011275D01*
X005306Y011434D02*
X005632Y011434D01*
X005674Y011592D02*
X005148Y011592D01*
X004989Y011751D02*
X007090Y011751D01*
X007074Y011909D02*
X004831Y011909D01*
X004851Y012068D02*
X006975Y012068D01*
X006985Y012226D02*
X005677Y012226D01*
X005513Y012226D02*
X004849Y012226D01*
X004743Y012385D02*
X005326Y012385D01*
X005297Y012543D02*
X004798Y012543D01*
X004956Y012702D02*
X005359Y012702D01*
X005115Y012860D02*
X018370Y012860D01*
X018370Y012702D02*
X005831Y012702D01*
X005432Y013177D02*
X018370Y013177D01*
X018370Y013019D02*
X005273Y013019D01*
X005590Y013336D02*
X018370Y013336D01*
X018370Y013494D02*
X005749Y013494D01*
X005860Y013653D02*
X018370Y013653D01*
X018370Y013811D02*
X005860Y013811D01*
X005860Y013970D02*
X018370Y013970D01*
X018370Y014128D02*
X005860Y014128D01*
X005860Y014287D02*
X018370Y014287D01*
X018370Y014445D02*
X018244Y014445D01*
X017616Y014445D02*
X005860Y014445D01*
X005860Y014604D02*
X017457Y014604D01*
X017365Y014762D02*
X005860Y014762D01*
X005860Y014921D02*
X017365Y014921D01*
X017365Y015079D02*
X005860Y015079D01*
X005860Y015238D02*
X017438Y015238D01*
X017597Y015396D02*
X005853Y015396D01*
X005826Y015555D02*
X018370Y015555D01*
X018370Y015713D02*
X005652Y015713D01*
X005458Y015713D02*
X003649Y015713D01*
X003491Y015555D02*
X005284Y015555D01*
X005257Y015396D02*
X003332Y015396D01*
X003271Y015335D02*
X003943Y016007D01*
X003989Y016007D01*
X004099Y016052D01*
X004183Y016136D01*
X004228Y016246D01*
X004228Y016364D01*
X004183Y016474D01*
X004099Y016558D01*
X003989Y016603D01*
X003871Y016603D01*
X003761Y016558D01*
X003677Y016474D01*
X003632Y016364D01*
X003632Y016318D01*
X003089Y015775D01*
X003007Y015775D01*
X002974Y015808D01*
X002933Y015825D01*
X003056Y015825D01*
X003410Y016179D01*
X003410Y016410D01*
X002825Y016410D01*
X002825Y016450D01*
X003410Y016450D01*
X003410Y016681D01*
X003132Y016958D01*
X003370Y017196D01*
X003370Y017664D01*
X003039Y017995D01*
X002571Y017995D01*
X002240Y017664D01*
X002240Y017196D01*
X002478Y016958D01*
X002200Y016681D01*
X002200Y016450D01*
X002785Y016450D01*
X002785Y016410D01*
X002200Y016410D01*
X002200Y016179D01*
X002554Y015825D01*
X002677Y015825D01*
X002636Y015808D01*
X002552Y015724D01*
X002507Y015614D01*
X002507Y015496D01*
X002552Y015386D01*
X002636Y015302D01*
X002746Y015257D01*
X002864Y015257D01*
X002974Y015302D01*
X003007Y015335D01*
X003271Y015335D01*
X003180Y015555D02*
X003930Y016305D01*
X004046Y016030D02*
X018370Y016030D01*
X018370Y015872D02*
X003808Y015872D01*
X003502Y016189D02*
X003410Y016189D01*
X003410Y016347D02*
X003632Y016347D01*
X003708Y016506D02*
X003410Y016506D01*
X003410Y016664D02*
X010996Y016664D01*
X011000Y016660D02*
X011117Y016612D01*
X011243Y016612D01*
X011360Y016660D01*
X011450Y016750D01*
X013410Y016750D01*
X013410Y016750D01*
X013500Y016660D01*
X013617Y016612D01*
X013743Y016612D01*
X013860Y016660D01*
X013950Y016750D01*
X013998Y016867D01*
X013998Y016993D01*
X013950Y017110D01*
X013860Y017200D01*
X013743Y017248D01*
X013617Y017248D01*
X013500Y017200D01*
X013410Y017110D01*
X011450Y017110D01*
X011450Y017110D01*
X011360Y017200D01*
X011243Y017248D01*
X011117Y017248D01*
X011000Y017200D01*
X010910Y017110D01*
X010862Y016993D01*
X010862Y016867D01*
X010910Y016750D01*
X011000Y016660D01*
X010880Y016823D02*
X003268Y016823D01*
X003155Y016981D02*
X010862Y016981D01*
X010940Y017140D02*
X003314Y017140D01*
X003370Y017298D02*
X016740Y017298D01*
X016743Y017140D02*
X013920Y017140D01*
X013998Y016981D02*
X016809Y016981D01*
X016875Y016823D02*
X013980Y016823D01*
X013864Y016664D02*
X014214Y016664D01*
X014250Y016700D02*
X014160Y016610D01*
X012200Y016610D01*
X012200Y016610D01*
X012110Y016700D01*
X011993Y016748D01*
X011867Y016748D01*
X011750Y016700D01*
X011660Y016610D01*
X011612Y016493D01*
X011612Y016367D01*
X011660Y016250D01*
X011750Y016160D01*
X011867Y016112D01*
X011993Y016112D01*
X012110Y016160D01*
X012200Y016250D01*
X014160Y016250D01*
X014160Y016250D01*
X014250Y016160D01*
X014367Y016112D01*
X014493Y016112D01*
X014610Y016160D01*
X014700Y016250D01*
X014748Y016367D01*
X014748Y016493D01*
X014700Y016610D01*
X014610Y016700D01*
X014493Y016748D01*
X014367Y016748D01*
X014250Y016700D01*
X014160Y016610D02*
X014160Y016610D01*
X014222Y016189D02*
X012138Y016189D01*
X012200Y016250D02*
X012200Y016250D01*
X012146Y016664D02*
X013496Y016664D01*
X013410Y017110D02*
X013410Y017110D01*
X013440Y017140D02*
X011420Y017140D01*
X011450Y016750D02*
X011450Y016750D01*
X011364Y016664D02*
X011714Y016664D01*
X011617Y016506D02*
X004152Y016506D01*
X004228Y016347D02*
X011620Y016347D01*
X011722Y016189D02*
X004205Y016189D01*
X003344Y016030D02*
X003261Y016030D01*
X003185Y015872D02*
X003102Y015872D01*
X003180Y015555D02*
X002805Y015555D01*
X002507Y015555D02*
X000360Y015555D01*
X000360Y015713D02*
X002547Y015713D01*
X002508Y015872D02*
X000360Y015872D01*
X000360Y016030D02*
X002349Y016030D01*
X002200Y016189D02*
X000360Y016189D01*
X000360Y016347D02*
X002200Y016347D01*
X002200Y016506D02*
X001540Y016506D01*
X001716Y016664D02*
X002200Y016664D01*
X002342Y016823D02*
X001855Y016823D01*
X001921Y016981D02*
X002455Y016981D01*
X002296Y017140D02*
X001987Y017140D01*
X001990Y017298D02*
X002240Y017298D01*
X002240Y017457D02*
X001990Y017457D01*
X001956Y017615D02*
X002240Y017615D01*
X002349Y017774D02*
X001890Y017774D01*
X001800Y017932D02*
X002508Y017932D01*
X003102Y017932D02*
X016930Y017932D01*
X016840Y017774D02*
X003261Y017774D01*
X003370Y017615D02*
X016774Y017615D01*
X016740Y017457D02*
X003370Y017457D01*
X002548Y015396D02*
X000360Y015396D01*
X000360Y015238D02*
X005325Y015238D01*
X005500Y015079D02*
X000360Y015079D01*
X000360Y014921D02*
X005500Y014921D01*
X005500Y014762D02*
X000360Y014762D01*
X000360Y014604D02*
X005500Y014604D01*
X005500Y014445D02*
X000360Y014445D01*
X000360Y014287D02*
X005500Y014287D01*
X005081Y014128D02*
X004534Y014128D01*
X004634Y013970D02*
X005007Y013970D01*
X005031Y013811D02*
X004626Y013811D01*
X004520Y013653D02*
X005023Y013653D01*
X004864Y013494D02*
X004520Y013494D01*
X004520Y013336D02*
X004706Y013336D01*
X004547Y013177D02*
X004520Y013177D01*
X004160Y013177D02*
X000360Y013177D01*
X000360Y013019D02*
X004014Y013019D01*
X003855Y012860D02*
X000360Y012860D01*
X000360Y012702D02*
X003697Y012702D01*
X003538Y012543D02*
X000360Y012543D01*
X000360Y012385D02*
X003380Y012385D01*
X003221Y012226D02*
X003183Y012226D01*
X002677Y012226D02*
X000360Y012226D01*
X000360Y012068D02*
X002518Y012068D01*
X002365Y011909D02*
X000360Y011909D01*
X000360Y011751D02*
X002365Y011751D01*
X002365Y011592D02*
X000360Y011592D01*
X000360Y011434D02*
X002377Y011434D01*
X002536Y011275D02*
X000360Y011275D01*
X000360Y011117D02*
X002362Y011117D01*
X002203Y010958D02*
X000360Y010958D01*
X000360Y010800D02*
X002125Y010800D01*
X002125Y010641D02*
X000360Y010641D01*
X000360Y010483D02*
X002125Y010483D01*
X002125Y010324D02*
X000360Y010324D01*
X000360Y010166D02*
X002125Y010166D01*
X002125Y010007D02*
X000360Y010007D01*
X000360Y009849D02*
X002125Y009849D01*
X002165Y009690D02*
X000360Y009690D01*
X000360Y009532D02*
X002324Y009532D01*
X002382Y009373D02*
X000360Y009373D01*
X000360Y009215D02*
X002473Y009215D01*
X002887Y009215D02*
X003920Y009215D01*
X003920Y009373D02*
X003495Y009373D01*
X003536Y009532D02*
X003920Y009532D01*
X003920Y009690D02*
X003695Y009690D01*
X004280Y009690D02*
X004757Y009690D01*
X004785Y009849D02*
X004280Y009849D01*
X004280Y010007D02*
X004848Y010007D01*
X004690Y010166D02*
X004280Y010166D01*
X004280Y010324D02*
X004531Y010324D01*
X004373Y010483D02*
X004283Y010483D01*
X004280Y009532D02*
X004821Y009532D01*
X005135Y009215D02*
X004280Y009215D01*
X004280Y009373D02*
X005241Y009373D01*
X005601Y009373D02*
X006250Y009373D01*
X006250Y009215D02*
X005600Y009215D01*
X005486Y009056D02*
X006250Y009056D01*
X006166Y008898D02*
X005327Y008898D01*
X005228Y008739D02*
X006132Y008739D01*
X006182Y008581D02*
X005178Y008581D01*
X004682Y008581D02*
X004280Y008581D01*
X004280Y008739D02*
X004632Y008739D01*
X004666Y008898D02*
X004280Y008898D01*
X004280Y009056D02*
X004976Y009056D01*
X005603Y009532D02*
X006250Y009532D01*
X006170Y009690D02*
X005605Y009690D01*
X005606Y009849D02*
X006011Y009849D01*
X005852Y010007D02*
X005608Y010007D01*
X005610Y010166D02*
X005693Y010166D01*
X006498Y011117D02*
X007090Y011117D01*
X007090Y011275D02*
X006340Y011275D01*
X006228Y011434D02*
X007090Y011434D01*
X007090Y011592D02*
X006186Y011592D01*
X006657Y010958D02*
X007090Y010958D01*
X007090Y010800D02*
X006815Y010800D01*
X006974Y010641D02*
X007090Y010641D01*
X007450Y010641D02*
X007865Y010641D01*
X007865Y010664D02*
X007865Y010196D01*
X008196Y009865D01*
X008664Y009865D01*
X008995Y010196D01*
X008995Y010664D01*
X008664Y010995D01*
X008196Y010995D01*
X007865Y010664D01*
X007865Y010483D02*
X007512Y010483D01*
X007671Y010324D02*
X007865Y010324D01*
X007895Y010166D02*
X007829Y010166D01*
X007988Y010007D02*
X008054Y010007D01*
X008146Y009849D02*
X011632Y009849D01*
X011473Y010007D02*
X008806Y010007D01*
X008965Y010166D02*
X011315Y010166D01*
X010989Y010324D02*
X008995Y010324D01*
X008995Y010483D02*
X010863Y010483D01*
X010704Y010641D02*
X008995Y010641D01*
X008860Y010800D02*
X010546Y010800D01*
X010387Y010958D02*
X008701Y010958D01*
X008664Y011115D02*
X008995Y011446D01*
X008995Y011914D01*
X008664Y012245D01*
X008196Y012245D01*
X007865Y011914D01*
X007865Y011446D01*
X008196Y011115D01*
X008664Y011115D01*
X008666Y011117D02*
X010229Y011117D01*
X010070Y011275D02*
X008824Y011275D01*
X008983Y011434D02*
X009912Y011434D01*
X009753Y011592D02*
X008995Y011592D01*
X008995Y011751D02*
X009595Y011751D01*
X009436Y011909D02*
X008995Y011909D01*
X008842Y012068D02*
X009278Y012068D01*
X009119Y012226D02*
X008683Y012226D01*
X008177Y012226D02*
X007555Y012226D01*
X007565Y012068D02*
X008018Y012068D01*
X007865Y011909D02*
X007466Y011909D01*
X007450Y011751D02*
X007865Y011751D01*
X007865Y011592D02*
X007450Y011592D01*
X007450Y011434D02*
X007877Y011434D01*
X008036Y011275D02*
X007450Y011275D01*
X007450Y011117D02*
X008194Y011117D01*
X008159Y010958D02*
X007450Y010958D01*
X007450Y010800D02*
X008000Y010800D01*
X008789Y009373D02*
X011857Y009373D01*
X011846Y009215D02*
X008889Y009215D01*
X008881Y009056D02*
X011846Y009056D01*
X011846Y008898D02*
X008770Y008898D01*
X006658Y008264D02*
X011846Y008264D01*
X011846Y008105D02*
X006500Y008105D01*
X006363Y007947D02*
X011878Y007947D01*
X013128Y007947D02*
X013288Y007947D01*
X013288Y008105D02*
X013128Y008105D01*
X013128Y008264D02*
X013288Y008264D01*
X013288Y008422D02*
X013128Y008422D01*
X013128Y008898D02*
X013288Y008898D01*
X013288Y009056D02*
X013128Y009056D01*
X013128Y009215D02*
X013288Y009215D01*
X013288Y009373D02*
X013128Y009373D01*
X011824Y010166D02*
X018370Y010166D01*
X018370Y010324D02*
X018209Y010324D01*
X018241Y010356D02*
X018241Y010505D01*
X018135Y010610D01*
X017372Y010610D01*
X017267Y010505D01*
X017267Y010356D01*
X017372Y010250D01*
X018135Y010250D01*
X018241Y010356D01*
X018241Y010483D02*
X018370Y010483D01*
X018370Y010641D02*
X011467Y010641D01*
X011507Y010483D02*
X017267Y010483D01*
X017299Y010324D02*
X011666Y010324D01*
X011358Y010800D02*
X018370Y010800D01*
X018370Y010958D02*
X010897Y010958D01*
X010738Y011117D02*
X018370Y011117D01*
X018370Y011275D02*
X010580Y011275D01*
X010421Y011434D02*
X018370Y011434D01*
X018370Y011592D02*
X010263Y011592D01*
X010104Y011751D02*
X018370Y011751D01*
X018370Y011909D02*
X009946Y011909D01*
X009787Y012068D02*
X018370Y012068D01*
X018370Y012226D02*
X009629Y012226D01*
X009470Y012385D02*
X018370Y012385D01*
X018370Y012543D02*
X009312Y012543D01*
X006307Y008422D02*
X004280Y008422D01*
X004280Y008264D02*
X006149Y008264D01*
X005823Y008105D02*
X004280Y008105D01*
X004280Y007947D02*
X005767Y007947D01*
X003920Y007947D02*
X000360Y007947D01*
X000360Y008105D02*
X003920Y008105D01*
X003920Y008264D02*
X000360Y008264D01*
X000360Y008422D02*
X003920Y008422D01*
X003920Y008581D02*
X000360Y008581D01*
X000360Y008739D02*
X003920Y008739D01*
X003920Y008898D02*
X000360Y008898D01*
X000360Y009056D02*
X003920Y009056D01*
X003920Y007788D02*
X000360Y007788D01*
X000360Y007630D02*
X002296Y007630D01*
X002333Y007666D02*
X002172Y007505D01*
X002084Y007294D01*
X002084Y007066D01*
X002172Y006855D01*
X002333Y006694D01*
X002544Y006606D01*
X002772Y006606D01*
X002983Y006694D01*
X003144Y006855D01*
X003232Y007066D01*
X003232Y007294D01*
X003144Y007505D01*
X002983Y007666D01*
X002772Y007754D01*
X002544Y007754D01*
X002333Y007666D01*
X002158Y007471D02*
X000360Y007471D01*
X000360Y007313D02*
X002092Y007313D01*
X002084Y007154D02*
X000360Y007154D01*
X000360Y006996D02*
X002113Y006996D01*
X002190Y006837D02*
X000360Y006837D01*
X000360Y006679D02*
X002370Y006679D01*
X002946Y006679D02*
X003920Y006679D01*
X003920Y006837D02*
X003126Y006837D01*
X003203Y006996D02*
X003920Y006996D01*
X003920Y007154D02*
X003232Y007154D01*
X003224Y007313D02*
X003920Y007313D01*
X003920Y007471D02*
X003158Y007471D01*
X003020Y007630D02*
X003920Y007630D01*
X003920Y006520D02*
X000360Y006520D01*
X000360Y006362D02*
X003920Y006362D01*
X003920Y006203D02*
X000360Y006203D01*
X000360Y006045D02*
X003920Y006045D01*
X003821Y005886D02*
X000360Y005886D01*
X000360Y005728D02*
X003802Y005728D01*
X003889Y005569D02*
X000360Y005569D01*
X000360Y005411D02*
X018370Y005411D01*
X018370Y005569D02*
X004311Y005569D01*
X002788Y005079D02*
X002743Y005189D01*
X002659Y005273D01*
X002549Y005318D01*
X002431Y005318D01*
X002321Y005273D01*
X002237Y005189D01*
X002192Y005079D01*
X002192Y004976D01*
X001944Y004728D01*
X001841Y004728D01*
X001731Y004683D01*
X001647Y004599D01*
X001602Y004489D01*
X001602Y004371D01*
X001647Y004261D01*
X001731Y004177D01*
X001841Y004132D01*
X001959Y004132D01*
X002069Y004177D01*
X002153Y004261D01*
X002198Y004371D01*
X002198Y004474D01*
X002446Y004722D01*
X002549Y004722D01*
X002659Y004767D01*
X002743Y004851D01*
X002788Y004961D01*
X002788Y005079D01*
X002783Y005094D02*
X018370Y005094D01*
X018370Y005252D02*
X002680Y005252D01*
X002778Y004935D02*
X018370Y004935D01*
X018370Y004777D02*
X015399Y004777D01*
X015400Y004776D02*
X015320Y004802D01*
X015238Y004815D01*
X015233Y004815D01*
X015233Y003968D01*
X015158Y003968D01*
X015158Y004815D01*
X015154Y004815D01*
X015071Y004802D01*
X014991Y004776D01*
X014917Y004738D01*
X014849Y004689D01*
X014790Y004629D01*
X014740Y004562D01*
X014702Y004487D01*
X014676Y004407D01*
X014663Y004324D01*
X014663Y003968D01*
X015158Y003968D01*
X015158Y003892D01*
X015233Y003892D01*
X015233Y003045D01*
X015238Y003045D01*
X015320Y003058D01*
X015400Y003084D01*
X015475Y003122D01*
X015543Y003171D01*
X015602Y003231D01*
X015651Y003298D01*
X015689Y003373D01*
X015715Y003453D01*
X015728Y003536D01*
X015728Y003892D01*
X015233Y003892D01*
X015233Y003968D01*
X015728Y003968D01*
X015728Y004324D01*
X015715Y004407D01*
X015689Y004487D01*
X015651Y004562D01*
X015602Y004629D01*
X015543Y004689D01*
X015475Y004738D01*
X015400Y004776D01*
X015233Y004777D02*
X015158Y004777D01*
X015158Y004618D02*
X015233Y004618D01*
X015233Y004460D02*
X015158Y004460D01*
X015158Y004301D02*
X015233Y004301D01*
X015233Y004143D02*
X015158Y004143D01*
X015158Y003984D02*
X015233Y003984D01*
X015158Y003892D02*
X015158Y003045D01*
X015154Y003045D01*
X015071Y003058D01*
X014991Y003084D01*
X014917Y003122D01*
X014849Y003171D01*
X014790Y003231D01*
X014740Y003298D01*
X014702Y003373D01*
X014676Y003453D01*
X014663Y003536D01*
X014663Y003892D01*
X015158Y003892D01*
X015158Y003826D02*
X015233Y003826D01*
X015233Y003667D02*
X015158Y003667D01*
X015158Y003509D02*
X015233Y003509D01*
X015233Y003350D02*
X015158Y003350D01*
X015158Y003192D02*
X015233Y003192D01*
X015563Y003192D02*
X016854Y003192D01*
X016885Y003160D02*
X017066Y003085D01*
X017262Y003085D01*
X017443Y003160D01*
X017582Y003299D01*
X017657Y003480D01*
X017657Y004380D01*
X017582Y004561D01*
X017443Y004700D01*
X017262Y004775D01*
X017066Y004775D01*
X016885Y004700D01*
X016747Y004561D01*
X016672Y004380D01*
X016672Y003480D01*
X016747Y003299D01*
X016885Y003160D01*
X016725Y003350D02*
X015677Y003350D01*
X015724Y003509D02*
X016672Y003509D01*
X016672Y003667D02*
X015728Y003667D01*
X015728Y003826D02*
X016672Y003826D01*
X016672Y003984D02*
X015728Y003984D01*
X015728Y004143D02*
X016672Y004143D01*
X016672Y004301D02*
X015728Y004301D01*
X015698Y004460D02*
X016704Y004460D01*
X016803Y004618D02*
X015610Y004618D01*
X014993Y004777D02*
X002669Y004777D01*
X002343Y004618D02*
X014781Y004618D01*
X014693Y004460D02*
X002198Y004460D01*
X002170Y004301D02*
X014663Y004301D01*
X014663Y004143D02*
X001986Y004143D01*
X001814Y004143D02*
X000360Y004143D01*
X000360Y004301D02*
X001630Y004301D01*
X001602Y004460D02*
X000360Y004460D01*
X000360Y004618D02*
X001666Y004618D01*
X001992Y004777D02*
X000360Y004777D01*
X000360Y004935D02*
X002150Y004935D01*
X002197Y005094D02*
X000360Y005094D01*
X000360Y005252D02*
X002300Y005252D01*
X000360Y003984D02*
X014663Y003984D01*
X014663Y003826D02*
X000360Y003826D01*
X000360Y003667D02*
X014663Y003667D01*
X014668Y003509D02*
X000360Y003509D01*
X000360Y003350D02*
X014714Y003350D01*
X014829Y003192D02*
X010246Y003192D01*
X010253Y003184D02*
X010169Y003268D01*
X010059Y003313D01*
X009941Y003313D01*
X009831Y003268D01*
X009747Y003184D01*
X009702Y003074D01*
X009702Y002956D01*
X009747Y002846D01*
X009831Y002762D01*
X009941Y002717D01*
X010044Y002717D01*
X010419Y002341D01*
X010307Y002229D01*
X010240Y002068D01*
X010240Y001292D01*
X010307Y001131D01*
X010092Y001131D01*
X010091Y001128D02*
X010125Y001196D01*
X010148Y001268D01*
X010160Y001342D01*
X010160Y001660D01*
X009700Y001660D01*
X009700Y001700D01*
X010160Y001700D01*
X010160Y002018D01*
X010148Y002092D01*
X010125Y002164D01*
X010091Y002232D01*
X010046Y002293D01*
X009993Y002346D01*
X009932Y002391D01*
X009864Y002425D01*
X009792Y002448D01*
X009718Y002460D01*
X009700Y002460D01*
X009700Y001700D01*
X009660Y001700D01*
X009660Y002460D01*
X009642Y002460D01*
X009568Y002448D01*
X009496Y002425D01*
X009428Y002391D01*
X009367Y002346D01*
X009314Y002293D01*
X009269Y002232D01*
X009235Y002164D01*
X009212Y002092D01*
X009200Y002018D01*
X009200Y001700D01*
X009660Y001700D01*
X009660Y001660D01*
X009700Y001660D01*
X009700Y000900D01*
X009718Y000900D01*
X009792Y000912D01*
X009864Y000935D01*
X009932Y000969D01*
X009993Y001014D01*
X010046Y001067D01*
X010091Y001128D01*
X010152Y001290D02*
X010241Y001290D01*
X010240Y001448D02*
X010160Y001448D01*
X010160Y001607D02*
X010240Y001607D01*
X010240Y001765D02*
X010160Y001765D01*
X010160Y001924D02*
X010240Y001924D01*
X010246Y002082D02*
X010150Y002082D01*
X010084Y002241D02*
X010318Y002241D01*
X010361Y002399D02*
X009915Y002399D01*
X009700Y002399D02*
X009660Y002399D01*
X009660Y002241D02*
X009700Y002241D01*
X009700Y002082D02*
X009660Y002082D01*
X009660Y001924D02*
X009700Y001924D01*
X009700Y001765D02*
X009660Y001765D01*
X009660Y001660D02*
X009200Y001660D01*
X009200Y001342D01*
X009212Y001268D01*
X009235Y001196D01*
X009269Y001128D01*
X009314Y001067D01*
X009367Y001014D01*
X009428Y000969D01*
X009496Y000935D01*
X009568Y000912D01*
X009642Y000900D01*
X009660Y000900D01*
X009660Y001660D01*
X009660Y001607D02*
X009700Y001607D01*
X009700Y001448D02*
X009660Y001448D01*
X009660Y001290D02*
X009700Y001290D01*
X009700Y001131D02*
X009660Y001131D01*
X009660Y000973D02*
X009700Y000973D01*
X009936Y000973D02*
X010514Y000973D01*
X010592Y000940D02*
X010431Y001007D01*
X010307Y001131D01*
X010592Y000940D02*
X010768Y000940D01*
X010929Y001007D01*
X011053Y001131D01*
X011307Y001131D01*
X011431Y001007D01*
X011592Y000940D01*
X011768Y000940D01*
X011929Y001007D01*
X012053Y001131D01*
X012307Y001131D01*
X012431Y001007D01*
X012592Y000940D01*
X012768Y000940D01*
X012929Y001007D01*
X013053Y001131D01*
X013268Y001131D01*
X013269Y001128D02*
X013314Y001067D01*
X013367Y001014D01*
X013428Y000969D01*
X013496Y000935D01*
X013568Y000912D01*
X013642Y000900D01*
X013660Y000900D01*
X013660Y001660D01*
X013700Y001660D01*
X013700Y001700D01*
X014160Y001700D01*
X014160Y002018D01*
X014148Y002092D01*
X014125Y002164D01*
X014091Y002232D01*
X014046Y002293D01*
X013993Y002346D01*
X013932Y002391D01*
X013864Y002425D01*
X013792Y002448D01*
X013718Y002460D01*
X013700Y002460D01*
X013700Y001700D01*
X013660Y001700D01*
X013660Y002460D01*
X013642Y002460D01*
X013568Y002448D01*
X013496Y002425D01*
X013428Y002391D01*
X013367Y002346D01*
X013314Y002293D01*
X013269Y002232D01*
X013235Y002164D01*
X013212Y002092D01*
X013200Y002018D01*
X013200Y001700D01*
X013660Y001700D01*
X013660Y001660D01*
X013200Y001660D01*
X013200Y001342D01*
X013212Y001268D01*
X013235Y001196D01*
X013269Y001128D01*
X013208Y001290D02*
X013119Y001290D01*
X013120Y001292D02*
X013120Y002068D01*
X013053Y002229D01*
X012929Y002353D01*
X012768Y002420D01*
X012592Y002420D01*
X012431Y002353D01*
X012307Y002229D01*
X012240Y002068D01*
X012240Y001292D01*
X012307Y001131D01*
X012241Y001290D02*
X012119Y001290D01*
X012120Y001292D02*
X012120Y002068D01*
X012053Y002229D01*
X011929Y002353D01*
X011768Y002420D01*
X011592Y002420D01*
X011431Y002353D01*
X011307Y002229D01*
X011240Y002068D01*
X011240Y001292D01*
X011307Y001131D01*
X011241Y001290D02*
X011119Y001290D01*
X011120Y001292D02*
X011120Y002068D01*
X011053Y002229D01*
X010929Y002353D01*
X010860Y002382D01*
X010860Y002410D01*
X010755Y002515D01*
X010298Y002971D01*
X010298Y003074D01*
X010253Y003184D01*
X010298Y003033D02*
X018370Y003033D01*
X018370Y002875D02*
X010395Y002875D01*
X010554Y002716D02*
X018370Y002716D01*
X018370Y002558D02*
X010712Y002558D01*
X010860Y002399D02*
X011542Y002399D01*
X011318Y002241D02*
X011042Y002241D01*
X011114Y002082D02*
X011246Y002082D01*
X011240Y001924D02*
X011120Y001924D01*
X011120Y001765D02*
X011240Y001765D01*
X011240Y001607D02*
X011120Y001607D01*
X011120Y001448D02*
X011240Y001448D01*
X011120Y001292D02*
X011053Y001131D01*
X010846Y000973D02*
X011514Y000973D01*
X011846Y000973D02*
X012514Y000973D01*
X012846Y000973D02*
X013424Y000973D01*
X013660Y000973D02*
X013700Y000973D01*
X013700Y000900D02*
X013718Y000900D01*
X013792Y000912D01*
X013864Y000935D01*
X013932Y000969D01*
X013993Y001014D01*
X014046Y001067D01*
X014091Y001128D01*
X014125Y001196D01*
X014148Y001268D01*
X014160Y001342D01*
X014160Y001660D01*
X013700Y001660D01*
X013700Y000900D01*
X013936Y000973D02*
X016730Y000973D01*
X016730Y001131D02*
X014092Y001131D01*
X014152Y001290D02*
X016758Y001290D01*
X016823Y001448D02*
X014160Y001448D01*
X014160Y001607D02*
X016905Y001607D01*
X017063Y001765D02*
X014160Y001765D01*
X014160Y001924D02*
X017323Y001924D01*
X018077Y001924D02*
X018370Y001924D01*
X018370Y002082D02*
X014150Y002082D01*
X014084Y002241D02*
X018370Y002241D01*
X018370Y002399D02*
X013915Y002399D01*
X013700Y002399D02*
X013660Y002399D01*
X013660Y002241D02*
X013700Y002241D01*
X013700Y002082D02*
X013660Y002082D01*
X013660Y001924D02*
X013700Y001924D01*
X013700Y001765D02*
X013660Y001765D01*
X013660Y001607D02*
X013700Y001607D01*
X013700Y001448D02*
X013660Y001448D01*
X013660Y001290D02*
X013700Y001290D01*
X013700Y001131D02*
X013660Y001131D01*
X013200Y001448D02*
X013120Y001448D01*
X013120Y001292D02*
X013053Y001131D01*
X013120Y001607D02*
X013200Y001607D01*
X013200Y001765D02*
X013120Y001765D01*
X013120Y001924D02*
X013200Y001924D01*
X013210Y002082D02*
X013114Y002082D01*
X013042Y002241D02*
X013276Y002241D01*
X013445Y002399D02*
X012818Y002399D01*
X012542Y002399D02*
X011818Y002399D01*
X012042Y002241D02*
X012318Y002241D01*
X012246Y002082D02*
X012114Y002082D01*
X012120Y001924D02*
X012240Y001924D01*
X012240Y001765D02*
X012120Y001765D01*
X012120Y001607D02*
X012240Y001607D01*
X012240Y001448D02*
X012120Y001448D01*
X012120Y001292D02*
X012053Y001131D01*
X010203Y002558D02*
X007860Y002558D01*
X007860Y002716D02*
X010044Y002716D01*
X009735Y002875D02*
X007932Y002875D01*
X007933Y002876D02*
X007978Y002986D01*
X007978Y003104D01*
X007933Y003214D01*
X007849Y003298D01*
X007739Y003343D01*
X007621Y003343D01*
X007511Y003298D01*
X007427Y003214D01*
X007382Y003104D01*
X007382Y002986D01*
X007427Y002876D01*
X007500Y002803D01*
X007500Y002382D01*
X007431Y002353D01*
X007307Y002229D01*
X007240Y002068D01*
X007240Y001292D01*
X007307Y001131D01*
X007053Y001131D01*
X007120Y001292D01*
X007120Y002068D01*
X007053Y002229D01*
X006929Y002353D01*
X006768Y002420D01*
X006592Y002420D01*
X006431Y002353D01*
X006307Y002229D01*
X006240Y002068D01*
X006240Y001292D01*
X006307Y001131D01*
X006053Y001131D01*
X006120Y001292D01*
X006120Y002068D01*
X006053Y002229D01*
X005929Y002353D01*
X005768Y002420D01*
X005592Y002420D01*
X005481Y002374D01*
X005450Y002405D01*
X005450Y002773D01*
X005523Y002846D01*
X005568Y002956D01*
X005568Y003074D01*
X005523Y003184D01*
X005439Y003268D01*
X005329Y003313D01*
X005211Y003313D01*
X005101Y003268D01*
X005017Y003184D01*
X004972Y003074D01*
X004972Y002956D01*
X005017Y002846D01*
X005090Y002773D01*
X005090Y002255D01*
X005251Y002094D01*
X005240Y002068D01*
X005240Y001292D01*
X005307Y001131D01*
X002000Y001131D01*
X002000Y000973D02*
X005514Y000973D01*
X005592Y000940D02*
X005768Y000940D01*
X005929Y001007D01*
X006053Y001131D01*
X006119Y001290D02*
X006241Y001290D01*
X006240Y001448D02*
X006120Y001448D01*
X006120Y001607D02*
X006240Y001607D01*
X006240Y001765D02*
X006120Y001765D01*
X006120Y001924D02*
X006240Y001924D01*
X006246Y002082D02*
X006114Y002082D01*
X006042Y002241D02*
X006318Y002241D01*
X006542Y002399D02*
X005818Y002399D01*
X005542Y002399D02*
X005456Y002399D01*
X005450Y002558D02*
X007500Y002558D01*
X007500Y002716D02*
X005450Y002716D01*
X005535Y002875D02*
X007428Y002875D01*
X007382Y003033D02*
X005568Y003033D01*
X005516Y003192D02*
X007418Y003192D01*
X007860Y002803D02*
X007933Y002876D01*
X007860Y002803D02*
X007860Y002382D01*
X007929Y002353D01*
X008053Y002229D01*
X008120Y002068D01*
X008120Y001292D01*
X008053Y001131D01*
X008307Y001131D01*
X008431Y001007D01*
X008592Y000940D01*
X008768Y000940D01*
X008929Y001007D01*
X009053Y001131D01*
X009268Y001131D01*
X009208Y001290D02*
X009119Y001290D01*
X009120Y001292D02*
X009120Y002068D01*
X009053Y002229D01*
X008929Y002353D01*
X008768Y002420D01*
X008592Y002420D01*
X008431Y002353D01*
X008307Y002229D01*
X008240Y002068D01*
X008240Y001292D01*
X008307Y001131D01*
X008241Y001290D02*
X008119Y001290D01*
X008120Y001448D02*
X008240Y001448D01*
X008240Y001607D02*
X008120Y001607D01*
X008120Y001765D02*
X008240Y001765D01*
X008240Y001924D02*
X008120Y001924D01*
X008114Y002082D02*
X008246Y002082D01*
X008318Y002241D02*
X008042Y002241D01*
X007860Y002399D02*
X008542Y002399D01*
X008818Y002399D02*
X009445Y002399D01*
X009276Y002241D02*
X009042Y002241D01*
X009114Y002082D02*
X009210Y002082D01*
X009200Y001924D02*
X009120Y001924D01*
X009120Y001765D02*
X009200Y001765D01*
X009200Y001607D02*
X009120Y001607D01*
X009120Y001448D02*
X009200Y001448D01*
X009120Y001292D02*
X009053Y001131D01*
X008846Y000973D02*
X009424Y000973D01*
X008514Y000973D02*
X007846Y000973D01*
X007768Y000940D02*
X007929Y001007D01*
X008053Y001131D01*
X007768Y000940D02*
X007592Y000940D01*
X007431Y001007D01*
X007307Y001131D01*
X007241Y001290D02*
X007119Y001290D01*
X007120Y001448D02*
X007240Y001448D01*
X007240Y001607D02*
X007120Y001607D01*
X007120Y001765D02*
X007240Y001765D01*
X007240Y001924D02*
X007120Y001924D01*
X007114Y002082D02*
X007246Y002082D01*
X007318Y002241D02*
X007042Y002241D01*
X006818Y002399D02*
X007500Y002399D01*
X007978Y003033D02*
X009702Y003033D01*
X009754Y003192D02*
X007942Y003192D01*
X007053Y001131D02*
X006929Y001007D01*
X006768Y000940D01*
X006592Y000940D01*
X006431Y001007D01*
X006307Y001131D01*
X006514Y000973D02*
X005846Y000973D01*
X005592Y000940D02*
X005431Y001007D01*
X005307Y001131D01*
X005241Y001290D02*
X001972Y001290D01*
X001907Y001448D02*
X005240Y001448D01*
X005240Y001607D02*
X001825Y001607D01*
X001667Y001765D02*
X004207Y001765D01*
X004217Y001741D02*
X004301Y001657D01*
X004411Y001612D01*
X004529Y001612D01*
X004639Y001657D01*
X004723Y001741D01*
X004768Y001851D01*
X004768Y001969D01*
X004723Y002079D01*
X004650Y002152D01*
X004650Y002773D01*
X004723Y002846D01*
X004768Y002956D01*
X004768Y003074D01*
X004723Y003184D01*
X004639Y003268D01*
X004529Y003313D01*
X004411Y003313D01*
X004301Y003268D01*
X004217Y003184D01*
X004172Y003074D01*
X004172Y002956D01*
X004217Y002846D01*
X004290Y002773D01*
X004290Y002152D01*
X004217Y002079D01*
X004172Y001969D01*
X004172Y001851D01*
X004217Y001741D01*
X004172Y001924D02*
X001407Y001924D01*
X000653Y001924D02*
X000360Y001924D01*
X000360Y002082D02*
X004220Y002082D01*
X004290Y002241D02*
X000360Y002241D01*
X000360Y002399D02*
X004290Y002399D01*
X004290Y002558D02*
X000360Y002558D01*
X000360Y002716D02*
X004290Y002716D01*
X004205Y002875D02*
X000360Y002875D01*
X000360Y003033D02*
X004172Y003033D01*
X004224Y003192D02*
X000360Y003192D01*
X000360Y001765D02*
X000393Y001765D01*
X001859Y000497D02*
X016871Y000497D01*
X016805Y000656D02*
X001925Y000656D01*
X001990Y000814D02*
X016740Y000814D01*
X018337Y001765D02*
X018370Y001765D01*
X018370Y003192D02*
X017475Y003192D01*
X017603Y003350D02*
X018370Y003350D01*
X018370Y003509D02*
X017657Y003509D01*
X017657Y003667D02*
X018370Y003667D01*
X018370Y003826D02*
X017657Y003826D01*
X017657Y003984D02*
X018370Y003984D01*
X018370Y004143D02*
X017657Y004143D01*
X017657Y004301D02*
X018370Y004301D01*
X018370Y004460D02*
X017624Y004460D01*
X017525Y004618D02*
X018370Y004618D01*
X018370Y009849D02*
X015360Y009849D01*
X015233Y010007D02*
X018370Y010007D01*
X018370Y015396D02*
X018263Y015396D01*
X018370Y016189D02*
X014638Y016189D01*
X014740Y016347D02*
X018370Y016347D01*
X018370Y016506D02*
X018230Y016506D01*
X017190Y016506D02*
X014743Y016506D01*
X014646Y016664D02*
X017014Y016664D01*
X004160Y013653D02*
X000360Y013653D01*
X000360Y013811D02*
X004054Y013811D01*
X004046Y013970D02*
X000360Y013970D01*
X000360Y014128D02*
X004146Y014128D01*
X004160Y013494D02*
X000360Y013494D01*
X000360Y013336D02*
X004160Y013336D01*
X000500Y016506D02*
X000360Y016506D01*
X004716Y003192D02*
X005024Y003192D01*
X004972Y003033D02*
X004768Y003033D01*
X004735Y002875D02*
X005005Y002875D01*
X005090Y002716D02*
X004650Y002716D01*
X004650Y002558D02*
X005090Y002558D01*
X005090Y002399D02*
X004650Y002399D01*
X004650Y002241D02*
X005105Y002241D01*
X005246Y002082D02*
X004720Y002082D01*
X004768Y001924D02*
X005240Y001924D01*
X005240Y001765D02*
X004733Y001765D01*
X006846Y000973D02*
X007514Y000973D01*
D17*
X007680Y003045D03*
X010000Y003015D03*
X008680Y006920D03*
X008180Y008805D03*
X008595Y009145D03*
X006430Y008755D03*
X006065Y007925D03*
X004930Y008755D03*
X005055Y009720D03*
X005805Y009720D03*
X004305Y010805D03*
X003930Y011180D03*
X004305Y011805D03*
X004560Y012145D03*
X005595Y012515D03*
X005930Y011430D03*
X007270Y012135D03*
X005305Y013930D03*
X004340Y013900D03*
X004805Y015430D03*
X005555Y015430D03*
X005680Y016305D03*
X004680Y016305D03*
X003930Y016305D03*
X002805Y015555D03*
X006805Y015430D03*
X007795Y017510D03*
X009555Y014805D03*
X010430Y011860D03*
X011180Y010555D03*
X014295Y009635D03*
X014680Y008430D03*
X015760Y008800D03*
X015805Y007805D03*
X015805Y006930D03*
X014305Y006180D03*
X013430Y006805D03*
X015180Y011930D03*
X015930Y011930D03*
X015150Y016960D03*
X003805Y010055D03*
X003235Y009525D03*
X002680Y009430D03*
X004100Y005780D03*
X005305Y005805D03*
X004180Y004430D03*
X004470Y003015D03*
X005270Y003015D03*
X004470Y001910D03*
X001900Y004430D03*
X002490Y005020D03*
X001555Y002555D03*
D18*
X001805Y013930D03*
D19*
X011180Y016930D03*
X011930Y016430D03*
X013680Y016930D03*
X014430Y016430D03*
D20*
X017710Y017340D03*
X001020Y017340D03*
X001030Y001030D03*
X017700Y001030D03*
M02*
