G75*
G70*
%OFA0B0*%
%FSLAX24Y24*%
%IPPOS*%
%LPD*%
%AMOC8*
5,1,8,0,0,1.08239X$1,22.5*
%
%ADD10C,0.0000*%
%ADD11R,0.0473X0.0434*%
%ADD12R,0.0670X0.0591*%
%ADD13R,0.0434X0.0473*%
%ADD14R,0.0827X0.1024*%
%ADD15R,0.1024X0.0827*%
%ADD16R,0.0512X0.1024*%
%ADD17C,0.0827*%
%ADD18R,0.0631X0.0552*%
%ADD19C,0.0745*%
%ADD20R,0.0552X0.0827*%
%ADD21OC8,0.0890*%
%ADD22R,0.0552X0.0788*%
%ADD23R,0.0591X0.0178*%
%ADD24R,0.0788X0.0749*%
%ADD25C,0.0640*%
%ADD26R,0.0340X0.0490*%
%ADD27R,0.0430X0.0160*%
%ADD28R,0.0512X0.0257*%
%ADD29C,0.1700*%
D10*
X000180Y000180D02*
X000180Y018176D01*
X018550Y018176D01*
X018550Y000180D01*
X000180Y000180D01*
X002264Y007180D02*
X002266Y007219D01*
X002272Y007258D01*
X002282Y007296D01*
X002295Y007333D01*
X002312Y007368D01*
X002332Y007402D01*
X002356Y007433D01*
X002383Y007462D01*
X002412Y007488D01*
X002444Y007511D01*
X002478Y007531D01*
X002514Y007547D01*
X002551Y007559D01*
X002590Y007568D01*
X002629Y007573D01*
X002668Y007574D01*
X002707Y007571D01*
X002746Y007564D01*
X002783Y007553D01*
X002820Y007539D01*
X002855Y007521D01*
X002888Y007500D01*
X002919Y007475D01*
X002947Y007448D01*
X002972Y007418D01*
X002994Y007385D01*
X003013Y007351D01*
X003028Y007315D01*
X003040Y007277D01*
X003048Y007239D01*
X003052Y007200D01*
X003052Y007160D01*
X003048Y007121D01*
X003040Y007083D01*
X003028Y007045D01*
X003013Y007009D01*
X002994Y006975D01*
X002972Y006942D01*
X002947Y006912D01*
X002919Y006885D01*
X002888Y006860D01*
X002855Y006839D01*
X002820Y006821D01*
X002783Y006807D01*
X002746Y006796D01*
X002707Y006789D01*
X002668Y006786D01*
X002629Y006787D01*
X002590Y006792D01*
X002551Y006801D01*
X002514Y006813D01*
X002478Y006829D01*
X002444Y006849D01*
X002412Y006872D01*
X002383Y006898D01*
X002356Y006927D01*
X002332Y006958D01*
X002312Y006992D01*
X002295Y007027D01*
X002282Y007064D01*
X002272Y007102D01*
X002266Y007141D01*
X002264Y007180D01*
X005020Y007180D02*
X005022Y007219D01*
X005028Y007258D01*
X005038Y007296D01*
X005051Y007333D01*
X005068Y007368D01*
X005088Y007402D01*
X005112Y007433D01*
X005139Y007462D01*
X005168Y007488D01*
X005200Y007511D01*
X005234Y007531D01*
X005270Y007547D01*
X005307Y007559D01*
X005346Y007568D01*
X005385Y007573D01*
X005424Y007574D01*
X005463Y007571D01*
X005502Y007564D01*
X005539Y007553D01*
X005576Y007539D01*
X005611Y007521D01*
X005644Y007500D01*
X005675Y007475D01*
X005703Y007448D01*
X005728Y007418D01*
X005750Y007385D01*
X005769Y007351D01*
X005784Y007315D01*
X005796Y007277D01*
X005804Y007239D01*
X005808Y007200D01*
X005808Y007160D01*
X005804Y007121D01*
X005796Y007083D01*
X005784Y007045D01*
X005769Y007009D01*
X005750Y006975D01*
X005728Y006942D01*
X005703Y006912D01*
X005675Y006885D01*
X005644Y006860D01*
X005611Y006839D01*
X005576Y006821D01*
X005539Y006807D01*
X005502Y006796D01*
X005463Y006789D01*
X005424Y006786D01*
X005385Y006787D01*
X005346Y006792D01*
X005307Y006801D01*
X005270Y006813D01*
X005234Y006829D01*
X005200Y006849D01*
X005168Y006872D01*
X005139Y006898D01*
X005112Y006927D01*
X005088Y006958D01*
X005068Y006992D01*
X005051Y007027D01*
X005038Y007064D01*
X005028Y007102D01*
X005022Y007141D01*
X005020Y007180D01*
D11*
X008680Y006515D03*
X008680Y005845D03*
X008930Y007845D03*
X008930Y008515D03*
X014845Y009430D03*
X015515Y009430D03*
X006930Y014345D03*
X006930Y015015D03*
X005930Y015015D03*
X005930Y014345D03*
D12*
X008555Y016379D03*
X008555Y017481D03*
D13*
X009555Y017515D03*
X009555Y016845D03*
X009555Y016015D03*
X009555Y015345D03*
X007180Y016845D03*
X007180Y017515D03*
X004930Y015015D03*
X004930Y014345D03*
X004015Y015180D03*
X003345Y015180D03*
X004180Y016845D03*
X004180Y017515D03*
X001765Y011680D03*
X001095Y011680D03*
X001095Y010680D03*
X001765Y010680D03*
X001765Y009680D03*
X001095Y009680D03*
X001265Y004680D03*
X000595Y004680D03*
X002595Y004430D03*
X003265Y004430D03*
X004595Y004430D03*
X005265Y004430D03*
D14*
X005886Y005822D03*
X002973Y008538D03*
X002264Y005822D03*
D15*
X007481Y007475D03*
D16*
X001871Y008538D03*
D17*
X002658Y007180D03*
X005414Y007180D03*
D18*
X000930Y003265D03*
X000930Y002595D03*
D19*
X015196Y003578D02*
X015196Y004283D01*
X017164Y004283D02*
X017164Y003578D01*
D20*
X015936Y011260D03*
X015149Y011260D03*
X014361Y011260D03*
X013574Y011260D03*
X012786Y011260D03*
X011999Y011260D03*
X011211Y011260D03*
X010424Y011260D03*
X010424Y017560D03*
X011211Y017560D03*
X011999Y017560D03*
X012786Y017560D03*
X013574Y017560D03*
X014361Y017560D03*
X015149Y017560D03*
X015936Y017560D03*
D21*
X017930Y014930D03*
X008430Y011680D03*
X008430Y010430D03*
X002930Y010430D03*
X002930Y011680D03*
X002805Y016430D03*
X002805Y017430D03*
D22*
X010597Y008810D03*
X010597Y007550D03*
X012763Y007550D03*
X012763Y008810D03*
D23*
X002473Y013918D03*
X002473Y014174D03*
X002473Y014430D03*
X002473Y014686D03*
X002473Y014942D03*
D24*
X001430Y016005D03*
X001430Y012855D03*
D25*
X005680Y001980D02*
X005680Y001380D01*
X006680Y001380D02*
X006680Y001980D01*
X007680Y001980D02*
X007680Y001380D01*
X008680Y001380D02*
X008680Y001980D01*
X009680Y001980D02*
X009680Y001380D01*
X010680Y001380D02*
X010680Y001980D01*
X011680Y001980D02*
X011680Y001380D01*
X012680Y001380D02*
X012680Y001980D01*
X013680Y001980D02*
X013680Y001380D01*
D26*
X007680Y009295D03*
X007180Y009295D03*
X006680Y009295D03*
X006180Y009295D03*
X005680Y009295D03*
X005180Y009295D03*
X004680Y009295D03*
X004180Y009295D03*
X003680Y009295D03*
X003680Y013065D03*
X004180Y013065D03*
X004680Y013065D03*
X005180Y013065D03*
X005680Y013065D03*
X006180Y013065D03*
X006680Y013065D03*
X007180Y013065D03*
X007680Y013065D03*
D27*
X014031Y008832D03*
X014031Y008576D03*
X014031Y008320D03*
X014031Y008064D03*
X014031Y007808D03*
X014031Y007552D03*
X014031Y007296D03*
X014031Y007040D03*
X014031Y006784D03*
X014031Y006528D03*
X016329Y006528D03*
X016329Y006784D03*
X016329Y007040D03*
X016329Y007296D03*
X016329Y007552D03*
X016329Y007808D03*
X016329Y008064D03*
X016329Y008320D03*
X016329Y008576D03*
X016329Y008832D03*
D28*
X006192Y016806D03*
X006192Y017554D03*
X005168Y017554D03*
X005168Y017180D03*
X005168Y016806D03*
D29*
X001020Y017340D03*
X017710Y017340D03*
X017700Y001030D03*
X001030Y001030D03*
M02*
