%
M48
M72
T01C0.0197
T02C0.0236
T03C0.0400
T04C0.0470
T05C0.0787
T06C0.1260
%
T01
X8680Y6920
X14295Y9635
X5805Y9720
X10430Y11860
X15150Y16960
X7795Y17510
X5680Y16305
X4680Y16305
X9555Y14805
X4805Y15430
X6805Y15430
X15180Y11930
X15930Y11930
X1555Y2555
X4180Y4430
X14680Y8430
X13430Y6805
X5305Y5805
X4340Y13900
X5055Y9720
X4305Y10805
X5305Y13930
X2680Y9430
X1900Y4430
X2490Y5020
X3235Y9525
X3805Y10055
X5595Y12515
X11180Y10555
X15805Y7805
X8595Y9145
X7270Y12135
X15805Y6930
X14305Y6180
X5555Y15430
X4930Y8755
X5930Y11430
X8180Y8805
X15760Y8800
X2805Y15555
X3930Y16305
X10000Y3015
X7680Y3045
X4305Y11805
X6430Y8755
X5270Y3015
X4560Y12145
X6065Y7925
X4470Y3015
X4470Y1910
X3930Y11180
X4100Y5780
T02
X1805Y13930
X11930Y16430
X14430Y16430
X11180Y16930
X13680Y16930
T03
X17930Y14930
X5680Y1680
X6680Y1680
X11680Y1680
X12680Y1680
X13680Y1680
X7680Y1680
X8680Y1680
X9680Y1680
X10680Y1680
X2805Y17430
X2930Y10430
X2930Y11680
X8430Y10430
X8430Y11680
X2805Y16430
T04
X15196Y3930
X17164Y3930
T05
X2658Y7180
X5414Y7180
T06
X1020Y17340
X17710Y17340
X1030Y1030
X17700Y1030
M30
